<svg version="1.2" xmlns="http://www.w3.org/2000/svg" viewBox="0 0 512 512" width="256" height="256">
	<title>wordpress (1)-svg</title>
	<style>
		.s0 { fill: #05a8da } 
		.s1 { fill: none;stroke: #ffffff;stroke-width: 20 } 
		.s2 { fill: #ffffff } 
	</style>
	<path id="Layer" class="s0" d="m0 15c0-8.3 6.7-15 15-15h482c8.3 0 15 6.7 15 15v482c0 8.3-6.7 15-15 15h-482c-8.3 0-15-6.7-15-15z"/>
	<path id="Layer" class="s1" d="m256 438c-100.6 0-182-81.4-182-182 0-100.6 81.4-182 182-182 100.6 0 182 81.4 182 182 0 100.6-81.4 182-182 182z"/>
	<path id="Layer" class="s2" d="m315 424l28-15 54-156c10-25 13-45 13-62 0-32-13-60-36-63-21-2-33 19-32 31 2 29 31 45 31 85 0 28-18 73-31 117l-62-187 20-1c10 0 9-15-1-14-31 3-60 2-92 0-10-1-10 14-1 14l18 1 27 74-38 114-63-188 20-1c9 0 8-15-1-14-29 2-57 4-64-1l-8 24 84 233 25 14 54-158"/>
</svg>